<?xml version="1.0" encoding="utf-8"?>
<!-- Generator: Adobe Illustrator 21.0.2, SVG Export Plug-In . SVG Version: 6.00 Build 0)  -->
<svg version="1.1" id="Layer_1" xmlns="http://www.w3.org/2000/svg" xmlns:xlink="http://www.w3.org/1999/xlink" x="0px" y="0px"
	 viewBox="0 0 1920 1080" style="enable-background:new 0 0 1920 1080;" xml:space="preserve">
<text transform="matrix(1.147 0 0 1 6.9951 93.2383)" style="fill:#02B3E4;stroke:#000000;stroke-miterlimit:10; font-family:'Bauhaus93'; font-size:100px;">HTML</text>
<text transform="matrix(0 -0.8719 1 0 88.147 636.0234)" style="fill:#02B3E4; font-family:'Bauhaus93'; font-size:114.6982px;">WEB DESIGN</text>
<text transform="matrix(1.147 0 0 1 101.7021 352.8569)" style="fill:#01789A; font-family:'Bauhaus93'; font-size:100px;">FRONT-END DEVELOPMENT</text>
<text transform="matrix(0 -0.8719 1 0 183.9971 270.7329)" style="fill:#3DBDE1; font-family:'Bauhaus93'; font-size:114.6982px;">CSS</text>
<text transform="matrix(0 -0.6666 1 0 736.6606 891.8691)" style="fill:#3DBDE1; font-family:'Bauhaus93'; font-size:150.0062px;">JAVASCRIPT</text>
<text transform="matrix(1.147 0 0 1 7.0483 974.7139)" style="fill:#02B3E4; font-family:'Bauhaus93'; font-size:100px;">RESPONSIVE DESIGN</text>
<text transform="matrix(0 -0.8719 1 0 88.5107 898.8633)" style="fill:#02B3E4; font-family:'Bauhaus93'; font-size:114.6982px;">PHP</text>
<text transform="matrix(1.147 0 0 1 7.2676 716.2861)" style="fill:#02B3E4; font-family:'Bauhaus93'; font-size:100px;">BOOTSTRAP</text>
<text transform="matrix(1.147 0 0 1 6.7207 1057.5234)" style="fill:#3DBDE1;stroke:#000000;stroke-miterlimit:10; font-family:'Bauhaus93'; font-size:100px;">JQUERY</text>
<text transform="matrix(0 -0.8719 1 0 1882.0889 1057.2881)" style="fill:#015D77;stroke:#000000;stroke-miterlimit:10; font-family:'Bauhaus93'; font-size:103.6458px;">FRONT-END DEVELOPMENT</text>
<g>
	<text transform="matrix(1.147 0 0 1 218.4761 626.209)" style="fill:#02B3E4; font-family:'Bauhaus93'; font-size:187.4338px;">SASS</text>
</g>
<text transform="matrix(1.147 0 0 1 195.8628 257.9863)" style="fill:#02B3E4; font-family:'Bauhaus93'; font-size:187.4338px;">WORDPRESS</text>
<text transform="matrix(1.147 0 0 1 1078.415 672.2969)" style="fill:#02B3E4;stroke:#000000;stroke-miterlimit:10; font-family:'Bauhaus93'; font-size:148.2404px;">HTML</text>
<text transform="matrix(1.147 0 0 1 822.0059 1057.2852)" style="fill:#3DBDE1; font-family:'Bauhaus93'; font-size:100px;">JAVASCRIPT</text>
<text transform="matrix(0.7787 0 0 1 1088.1592 810.4473)" style="fill:#01789A; font-family:'Bauhaus93'; font-size:171.1619px;">WEB DESIGN</text>
<text transform="matrix(1.147 0 0 1 1421.8115 1057.7305)" style="fill:#02B3E4; font-family:'Bauhaus93'; font-size:206.0352px;">CSS</text>
<g>
	<text transform="matrix(0 -0.819 1 0 1564.1973 357.4385)" style="fill:#015D77; font-family:'Bauhaus93'; font-size:204.7314px;">JSON</text>
</g>
<text transform="matrix(1.2381 0 0 1 101.4849 468.7466)" style="fill:#015D77;stroke:#000000;stroke-miterlimit:10; font-family:'Bauhaus93'; font-size:138.868px;">REACT</text>
<text transform="matrix(1.2281 0 0 1 997.7119 970.3184)" style="fill:#015D77; font-family:'Bauhaus93'; font-size:198.3434px;">PHP</text>
<g>
	
		<text transform="matrix(0 -0.6486 1 0 1071.1152 819.0156)" style="fill:#02B3E4; font-family:'Bauhaus93'; font-size:187.4338px;">NODE.JS</text>
</g>
<text transform="matrix(0.7757 0 0 1 394.5103 1057.9316)" style="fill:#01789A; font-family:'Bauhaus93'; font-size:99.4989px;">WORDPRESS</text>
<text transform="matrix(0 -0.7101 1 0 1781.29 684.4697)" style="fill:#02B3E4; font-family:'Bauhaus93'; font-size:224.4984px;">REACT</text>
<g>
	
		<text transform="matrix(1.147 0 0 1 429.1377 104.7139)" style="fill:#015D77;stroke:#000000;stroke-miterlimit:10; font-family:'Bauhaus93'; font-size:100px;">RESPONSIVE DESIGN</text>
</g>
<text transform="matrix(0.7645 0 0 1 1103.291 531.8174)" style="fill:#015D77; font-family:'Bauhaus93'; font-size:204.7314px;">JQUERY</text>
<text transform="matrix(0.9198 0 0 1 1429.0879 892.0723)" style="fill:#01789A; font-family:'Bauhaus93'; font-size:75.7107px;">BOOTSTRAP</text>
<text transform="matrix(1.147 0 0 1 1587.2607 192.9038)" style="fill:#015D77; font-family:'Bauhaus93'; font-size:100px;">PHP</text>
<text transform="matrix(1.0842 0 0 1 1580.8711 104.3521)" style="fill:#02B3E4; font-family:'Bauhaus93'; font-size:126.3979px;">CSS</text>
<text transform="matrix(0.6684 0 0 1 101.4282 880.7588)" style="fill:#015D77;stroke:#000000;stroke-miterlimit:10; font-family:'Bauhaus93'; font-size:196.9671px;">ANGULAR</text>
<text transform="matrix(0 -0.5623 1 0 195.3442 636.1006)" style="fill:#3DBDE1; font-family:'Bauhaus93'; font-size:114.6982px;">HTML</text>
<g>
	<text transform="matrix(1.0045 0 0 1 283.1431 94.1196)" style="fill:#3DBDE1; font-family:'Bauhaus93'; font-size:91.3263px;">SQL</text>
</g>
<g>
	
		<text transform="matrix(0 -0.7811 1 0 1581.1729 679.5234)" style="fill:#3DBDE1; font-family:'Bauhaus93'; font-size:114.6982px;">SQL</text>
</g>
<text transform="matrix(0 -0.5437 1 0 927.5132 892.5566)" style="fill:#02B3E4; font-family:'Bauhaus93'; font-size:244.534px;">ANGULAR</text>
</svg>
